<svg preserveAspectRatio="none" width="100%" height="100%" overflow="visible" style="display: block;" viewBox="0 0 14.9142 14.9142" fill="none" xmlns="http://www.w3.org/2000/svg">
<path id="Icon" d="M6.75 2.16421H2.08333C1.72971 2.16421 1.39057 2.30469 1.14052 2.55474C0.890476 2.80479 0.75 3.14392 0.75 3.49755V12.8309C0.75 13.1845 0.890476 13.5236 1.14052 13.7737C1.39057 14.0237 1.72971 14.1642 2.08333 14.1642H11.4167C11.7703 14.1642 12.1094 14.0237 12.3595 13.7737C12.6095 13.5236 12.75 13.1845 12.75 12.8309V8.16421M11.75 1.16421C12.0152 0.898997 12.3749 0.75 12.75 0.75C13.1251 0.75 13.4848 0.898997 13.75 1.16421C14.0152 1.42943 14.1642 1.78914 14.1642 2.16421C14.1642 2.53929 14.0152 2.899 13.75 3.16421L7.41667 9.49755L4.75 10.1642L5.41667 7.49755L11.75 1.16421Z" stroke="var(--stroke-0, #9A958B)" stroke-width="1.5" stroke-linecap="round" stroke-linejoin="round"/>
</svg>
