<svg width="271" height="129" viewBox="0 0 271 129" fill="none" xmlns="http://www.w3.org/2000/svg">
<g clip-path="url(#clip0_526_609)">
<rect width="271" height="129" rx="10" fill="white"/>
<path d="M3 15.5H271" stroke="#D9D9D9" stroke-opacity="0.25"/>
<path d="M3 29.5H271" stroke="#D9D9D9" stroke-opacity="0.25"/>
<path d="M3 43.5H271" stroke="#D9D9D9" stroke-opacity="0.25"/>
<path d="M3 57.5H271" stroke="#D9D9D9" stroke-opacity="0.25"/>
<path d="M3 71.5H271" stroke="#D9D9D9" stroke-opacity="0.25"/>
<path d="M3 85.5H271" stroke="#D9D9D9" stroke-opacity="0.25"/>
<path d="M3 100.5H271" stroke="#D9D9D9" stroke-opacity="0.25"/>
<path d="M3 113.5H271" stroke="#D9D9D9" stroke-opacity="0.25"/>
<path d="M3 128.5H271" stroke="#D9D9D9" stroke-opacity="0.25"/>
<path d="M0 104L30.1515 99.549H53.0375L93.7239 47.9169L108.981 44.1335L135.137 29L158.023 59.4896L172.554 53.0356L212.877 99.549L240.849 77.2938L271 84.8605" stroke="#718D53" stroke-width="2"/>
<path d="M53.5 257.5V1M317.5 1V257.5" stroke="#9A958B" stroke-opacity="0.25"/>
<path d="M173 -63V193.5" stroke="#91B0D9" stroke-opacity="0.25"/>
<circle cx="173" cy="55" r="4.5" fill="#91B0D9" stroke="#91B0D9"/>
<circle cx="54" cy="99" r="5" fill="#9A958B"/>
</g>
<rect x="0.5" y="0.5" width="270" height="128" rx="9.5" stroke="#9A958B" stroke-opacity="0.25"/>
<defs>
<clipPath id="clip0_526_609">
<rect width="271" height="129" rx="10" fill="white"/>
</clipPath>
</defs>
</svg>
