<svg preserveAspectRatio="none" width="100%" height="100%" overflow="visible" style="display: block;" viewBox="0 0 154 35" fill="none" xmlns="http://www.w3.org/2000/svg">
<g id="Vector">
<path d="M8.64444 1.80142L12.4455 0.0838811L3.80098 33.2824L0 35L8.64444 1.80142Z" fill="var(--fill-0, #2C2B2A)"/>
<path d="M21.5942 1.71754L25.3952 0L16.7507 33.1985L12.9497 34.9161L21.5942 1.71754Z" fill="var(--fill-0, #2C2B2A)"/>
<path d="M8.10628 10.4858V6.6864H21.0222V10.4858H8.10628Z" fill="var(--fill-0, #2C2B2A)"/>
<path d="M5.41547 19.1702V15.3708H19.9534V19.1702H5.41547Z" fill="var(--fill-0, #2C2B2A)"/>
<path d="M3.80098 27.8547V24.0552H17.6447V27.8547H3.80098Z" fill="var(--fill-0, #2C2B2A)"/>
<path d="M49.6538 33.5142C46.7185 33.5142 44.5582 32.8373 43.173 31.4835C41.8208 30.0967 41.1447 28.066 41.1447 25.3915V1.96462L46.2403 0.0330184V25.441C46.2403 26.7618 46.5865 27.7359 47.2791 28.3632C47.9717 28.9906 49.0931 29.3042 50.6432 29.3042C51.2368 29.3042 51.7645 29.2547 52.2263 29.1557C52.688 29.0566 53.0838 28.941 53.4136 28.809V32.9693C53.0508 33.1344 52.5396 33.2665 51.88 33.3656C51.2203 33.4646 50.4783 33.5142 49.6538 33.5142ZM36.0987 11.8703V7.75943H53.4136V11.8703H36.0987Z" fill="var(--fill-0, #2C2B2A)"/>
<path d="M58.2915 33.0189V7.75943H63.1891V14.0495H63.4365V33.0189H58.2915ZM63.4365 19.8443L62.7934 13.8514C63.387 11.7052 64.4094 10.0708 65.8606 8.94811C67.3117 7.82547 69.0432 7.26415 71.0551 7.26415C71.8136 7.26415 72.3413 7.33019 72.6381 7.46226V12.316C72.4732 12.25 72.2424 12.217 71.9455 12.217C71.6487 12.184 71.2859 12.1675 70.8572 12.1675C68.3836 12.1675 66.5202 12.8113 65.2669 14.0991C64.0466 15.3868 63.4365 17.3019 63.4365 19.8443Z" fill="var(--fill-0, #2C2B2A)"/>
<path d="M88.0673 33.5142C85.4948 33.5142 83.2356 32.9528 81.2898 31.8302C79.3439 30.6745 77.8268 29.1061 76.7384 27.125C75.6501 25.1109 75.1059 22.8325 75.1059 20.2901C75.1059 17.7146 75.6501 15.4528 76.7384 13.5047C77.8598 11.5566 79.3769 10.0377 81.2898 8.94811C83.2356 7.82547 85.4948 7.26415 88.0673 7.26415C90.6728 7.26415 92.9485 7.82547 94.8943 8.94811C96.8402 10.0377 98.3408 11.5566 99.3962 13.5047C100.485 15.4528 101.029 17.7146 101.029 20.2901C101.029 22.8325 100.485 25.1109 99.3962 27.125C98.3408 29.1061 96.8402 30.6745 94.8943 31.8302C92.9485 32.9528 90.6728 33.5142 88.0673 33.5142ZM88.0673 29.3042C89.6174 29.3042 90.9531 28.9245 92.0745 28.1651C93.2288 27.4057 94.1358 26.3491 94.7954 24.9953C95.455 23.6415 95.7848 22.0566 95.7848 20.2406C95.7848 17.533 95.0592 15.4033 93.6081 13.8514C92.1899 12.2665 90.343 11.4741 88.0673 11.4741C85.8246 11.4741 83.9777 12.2665 82.5266 13.8514C81.1084 15.4363 80.3993 17.566 80.3993 20.2406C80.3993 22.0566 80.7126 23.6415 81.3393 24.9953C81.9989 26.3491 82.9058 27.4057 84.0602 28.1651C85.2475 28.9245 86.5832 29.3042 88.0673 29.3042Z" fill="var(--fill-0, #2C2B2A)"/>
<path d="M112.86 33.0189L102.57 7.75943H108.061L116.471 30.691H114.047L122.358 7.75943H127.652L117.411 33.0189H112.86Z" fill="var(--fill-0, #2C2B2A)"/>
<path d="M142.077 33.5142C139.538 33.5142 137.295 32.9528 135.349 31.8302C133.436 30.7075 131.936 29.1557 130.847 27.1745C129.759 25.1934 129.215 22.9151 129.215 20.3396C129.215 17.7311 129.743 15.4528 130.798 13.5047C131.886 11.5236 133.404 9.98821 135.349 8.89858C137.295 7.80896 139.521 7.26415 142.028 7.26415C144.469 7.26415 146.579 7.79245 148.36 8.84906C150.174 9.87264 151.559 11.309 152.516 13.158C153.505 15.0071 154 17.2028 154 19.7453C154 20.1415 153.984 20.5212 153.951 20.8844C153.951 21.2146 153.918 21.5613 153.852 21.9245H132.678V18.0613H150.24L148.954 19.5967C148.954 16.8892 148.344 14.8255 147.124 13.4057C145.903 11.9858 144.205 11.2759 142.028 11.2759C139.686 11.2759 137.823 12.0849 136.438 13.7028C135.086 15.2877 134.409 17.5 134.409 20.3396C134.409 23.2123 135.086 25.4575 136.438 27.0755C137.823 28.6934 139.736 29.5024 142.176 29.5024C143.661 29.5024 144.947 29.2052 146.035 28.6109C147.124 27.9835 147.932 27.0755 148.459 25.8868H153.307C152.483 28.2642 151.081 30.1297 149.102 31.4835C147.156 32.8373 144.815 33.5142 142.077 33.5142Z" fill="var(--fill-0, #2C2B2A)"/>
</g>
</svg>
