<svg width="16" height="7" viewBox="0 0 16 7" fill="none" xmlns="http://www.w3.org/2000/svg">
<path d="M0 7V0H2.70169C3.14222 0 3.51861 0.0875 3.83088 0.2625C4.14873 0.4375 4.3913 0.683796 4.55858 1.00139C4.73145 1.31898 4.81788 1.69491 4.81788 2.12917C4.81788 2.55694 4.73145 2.93287 4.55858 3.25694C4.38572 3.58102 4.14315 3.8338 3.83088 4.01528C3.51861 4.19028 3.14222 4.27778 2.70169 4.27778H0.844802V3.28611H2.65151C2.99723 3.28611 3.26211 3.18241 3.44612 2.975C3.63571 2.76759 3.73051 2.48565 3.73051 2.12917C3.73051 1.77917 3.63571 1.5037 3.44612 1.30278C3.26211 1.10185 2.99723 1.00139 2.65151 1.00139H1.08737V7H0Z" fill="#958F84"/>
<path d="M6.23976 7V5.98889H7.79553C8.25278 5.98889 8.64312 5.88194 8.96654 5.66806C9.28996 5.45417 9.53532 5.15602 9.70261 4.77361C9.87547 4.3912 9.9619 3.9537 9.9619 3.46111C9.9619 2.975 9.87547 2.54722 9.70261 2.17778C9.53532 1.80833 9.28996 1.52315 8.96654 1.32222C8.6487 1.11481 8.25836 1.01111 7.79553 1.01111H6.25649V0H7.79553C8.45353 0 9.02788 0.142592 9.51859 0.427777C10.0093 0.712963 10.3885 1.11806 10.6561 1.64306C10.9294 2.16157 11.066 2.77407 11.066 3.48056C11.066 4.18704 10.9294 4.80602 10.6561 5.3375C10.3829 5.8625 10.0009 6.27083 9.51023 6.5625C9.02509 6.85417 8.45632 7 7.80389 7H6.23976ZM5.57897 7V0H6.66634V7H5.57897Z" fill="#958F84"/>
<path d="M11.8931 7V0H12.9805V7H11.8931ZM12.4117 4.19028V3.18889H15.7993V4.19028H12.4117ZM12.4117 1.00139V0H16V1.00139H12.4117Z" fill="#958F84"/>
</svg>
