<svg preserveAspectRatio="none" width="100%" height="100%" overflow="visible" style="display: block;" viewBox="0 0 112 25" fill="none" xmlns="http://www.w3.org/2000/svg">
<g id="Vector">
<path d="M6.28687 1.28673L9.05124 0.0599151L2.76435 23.7732L0 25L6.28687 1.28673Z" fill="var(--fill-0, #2C2B2A)"/>
<path d="M15.7048 1.22681L18.4692 0L12.1823 23.7132L9.41798 24.9401L15.7048 1.22681Z" fill="var(--fill-0, #2C2B2A)"/>
<path d="M5.89548 7.48988V4.776H15.2889V7.48988H5.89548Z" fill="var(--fill-0, #2C2B2A)"/>
<path d="M3.93852 13.693V10.9792H14.5115V13.693H3.93852Z" fill="var(--fill-0, #2C2B2A)"/>
<path d="M2.76435 19.8962V17.1823H12.8325V19.8962H2.76435Z" fill="var(--fill-0, #2C2B2A)"/>
<path d="M36.1118 23.9387C33.9771 23.9387 32.406 23.4552 31.3986 22.4882C30.4152 21.4976 29.9234 20.0472 29.9234 18.1368V1.4033L33.6293 0.0235846V18.1722C33.6293 19.1156 33.8811 19.8113 34.3848 20.2594C34.8885 20.7075 35.7041 20.9316 36.8314 20.9316C37.2632 20.9316 37.6469 20.8962 37.9827 20.8255C38.3185 20.7547 38.6064 20.6722 38.8462 20.5778V23.5495C38.5824 23.6675 38.2106 23.7618 37.7309 23.8325C37.2512 23.9033 36.7115 23.9387 36.1118 23.9387ZM26.2536 8.47877V5.54245H38.8462V8.47877H26.2536Z" fill="var(--fill-0, #2C2B2A)"/>
<path d="M42.3938 23.5849V5.54245H45.9557V10.0354H46.1356V23.5849H42.3938ZM46.1356 14.1745L45.6679 9.89387C46.0997 8.36085 46.8432 7.1934 47.8986 6.39151C48.954 5.58962 50.2133 5.18868 51.6764 5.18868C52.2281 5.18868 52.6119 5.23585 52.8277 5.33019V8.79717C52.7078 8.75 52.5399 8.72641 52.324 8.72641C52.1082 8.70283 51.8443 8.69104 51.5325 8.69104C49.7335 8.69104 48.3783 9.15094 47.4669 10.0708C46.5794 10.9906 46.1356 12.3585 46.1356 14.1745Z" fill="var(--fill-0, #2C2B2A)"/>
<path d="M64.049 23.9387C62.1781 23.9387 60.535 23.5377 59.1198 22.7358C57.7047 21.9104 56.6013 20.7901 55.8098 19.375C55.0182 17.9363 54.6225 16.309 54.6225 14.4929C54.6225 12.6533 55.0182 11.0377 55.8098 9.64623C56.6253 8.25472 57.7287 7.16981 59.1198 6.39151C60.535 5.58962 62.1781 5.18868 64.049 5.18868C65.9439 5.18868 67.5989 5.58962 69.0141 6.39151C70.4292 7.16981 71.5206 8.25472 72.2882 9.64623C73.0797 11.0377 73.4755 12.6533 73.4755 14.4929C73.4755 16.309 73.0797 17.9363 72.2882 19.375C71.5206 20.7901 70.4292 21.9104 69.0141 22.7358C67.5989 23.5377 65.9439 23.9387 64.049 23.9387ZM64.049 20.9316C65.1763 20.9316 66.1477 20.6604 66.9633 20.1179C67.8028 19.5755 68.4624 18.8208 68.9421 17.8538C69.4218 16.8868 69.6617 15.7547 69.6617 14.4575C69.6617 12.5236 69.134 11.0024 68.0786 9.89387C67.0472 8.76179 65.704 8.19575 64.049 8.19575C62.4179 8.19575 61.0747 8.76179 60.0193 9.89387C58.9879 11.0259 58.4722 12.5472 58.4722 14.4575C58.4722 15.7547 58.7001 16.8868 59.1558 17.8538C59.6355 18.8208 60.2952 19.5755 61.1347 20.1179C61.9982 20.6604 62.9696 20.9316 64.049 20.9316Z" fill="var(--fill-0, #2C2B2A)"/>
<path d="M82.0798 23.5849L74.5962 5.54245H78.5898L84.7063 21.9222H82.9433L88.9878 5.54245H92.8375L85.3899 23.5849H82.0798Z" fill="var(--fill-0, #2C2B2A)"/>
<path d="M103.329 23.9387C101.482 23.9387 99.8511 23.5377 98.4359 22.7358C97.0447 21.934 95.9534 20.8255 95.1618 19.4104C94.3703 17.9953 93.9745 16.3679 93.9745 14.5283C93.9745 12.6651 94.3583 11.0377 95.1258 9.64623C95.9174 8.23113 97.0207 7.13443 98.4359 6.35613C99.8511 5.57783 101.47 5.18868 103.293 5.18868C105.068 5.18868 106.603 5.56604 107.898 6.32075C109.218 7.05189 110.225 8.07783 110.921 9.39858C111.64 10.7193 112 12.2877 112 14.1038C112 14.3868 111.988 14.658 111.964 14.9175C111.964 15.1533 111.94 15.4009 111.892 15.6604H96.493V12.9009H109.266L108.33 13.9976C108.33 12.0637 107.886 10.5896 106.999 9.57547C106.111 8.56132 104.876 8.05424 103.293 8.05424C101.59 8.05424 100.235 8.63207 99.2274 9.78773C98.244 10.9198 97.7523 12.5 97.7523 14.5283C97.7523 16.5802 98.244 18.184 99.2274 19.3396C100.235 20.4953 101.626 21.0731 103.401 21.0731C104.48 21.0731 105.416 20.8608 106.207 20.4363C106.999 19.9882 107.587 19.3396 107.97 18.4906H111.496C110.897 20.1887 109.877 21.5212 108.438 22.4882C107.023 23.4552 105.32 23.9387 103.329 23.9387Z" fill="var(--fill-0, #2C2B2A)"/>
</g>
</svg>
