<svg width="36" height="36" viewBox="0 0 36 36" fill="none" xmlns="http://www.w3.org/2000/svg">
<rect width="36" height="36" rx="5" fill="#FDFBF8"/>
<path d="M14 6.75H19.6826L22.3711 9.52246L25.2793 12.5225L27.25 14.5537V25C27.25 25.6904 26.6904 26.25 26 26.25H14C13.3096 26.25 12.75 25.6904 12.75 25V8C12.75 7.30964 13.3096 6.75 14 6.75Z" stroke="#958F84" stroke-width="1.5"/>
<rect x="6" y="21" width="18" height="8" fill="#FDFBF8"/>
<path d="M7 29V22H9.70169C10.1422 22 10.5186 22.0875 10.8309 22.2625C11.1487 22.4375 11.3913 22.6838 11.5586 23.0014C11.7314 23.319 11.8179 23.6949 11.8179 24.1292C11.8179 24.5569 11.7314 24.9329 11.5586 25.2569C11.3857 25.581 11.1432 25.8338 10.8309 26.0153C10.5186 26.1903 10.1422 26.2778 9.70169 26.2778H7.8448V25.2861H9.65151C9.99723 25.2861 10.2621 25.1824 10.4461 24.975C10.6357 24.7676 10.7305 24.4856 10.7305 24.1292C10.7305 23.7792 10.6357 23.5037 10.4461 23.3028C10.2621 23.1019 9.99723 23.0014 9.65151 23.0014H8.08737V29H7Z" fill="#958F84"/>
<path d="M13.2398 29V27.9889H14.7955C15.2528 27.9889 15.6431 27.8819 15.9665 27.6681C16.29 27.4542 16.5353 27.156 16.7026 26.7736C16.8755 26.3912 16.9619 25.9537 16.9619 25.4611C16.9619 24.975 16.8755 24.5472 16.7026 24.1778C16.5353 23.8083 16.29 23.5231 15.9665 23.3222C15.6487 23.1148 15.2584 23.0111 14.7955 23.0111H13.2565V22H14.7955C15.4535 22 16.0279 22.1426 16.5186 22.4278C17.0093 22.713 17.3885 23.1181 17.6561 23.6431C17.9294 24.1616 18.066 24.7741 18.066 25.4806C18.066 26.187 17.9294 26.806 17.6561 27.3375C17.3829 27.8625 17.0009 28.2708 16.5102 28.5625C16.0251 28.8542 15.4563 29 14.8039 29H13.2398ZM12.579 29V22H13.6663V29H12.579Z" fill="#958F84"/>
<path d="M18.8931 29V22H19.9805V29H18.8931ZM19.4117 26.1903V25.1889H22.7993V26.1903H19.4117ZM19.4117 23.0014V22H23V23.0014H19.4117Z" fill="#958F84"/>
</svg>
